<svg width="92" height="75" viewBox="0 0 92 75" fill="none" xmlns="http://www.w3.org/2000/svg">
<path d="M59.8706 14.902H17.5819C7.86744 14.902 0.0083313 22.789 0.0083313 32.4988V58.4382C0.0083313 58.9377 0.410914 59.3583 0.918518 59.3583H10.0029C10.633 59.3583 11.1494 59.8578 11.1581 60.4888L11.4907 73.7389C11.5082 74.7204 12.6372 75.2462 13.4161 74.6503L32.7488 59.5949C32.9588 59.4372 33.2126 59.3583 33.4577 59.3583H43.6885C53.263 59.3583 61.0083 51.5853 61.0083 42.0157V16.0763C61.0083 15.4366 60.492 14.902 59.8531 14.902H59.8706ZM34.6479 44.8025H15.604C14.5538 44.8025 13.6874 43.9524 13.6874 42.8833C13.6874 41.8142 14.5538 40.9641 15.604 40.9641H34.6479C35.7069 40.9641 36.5646 41.8142 36.5646 42.8833C36.5646 43.9524 35.7157 44.8025 34.6479 44.8025ZM46.2353 33.4101H15.604C14.5538 33.4101 13.6874 32.5601 13.6874 31.491C13.6874 30.4219 14.5538 29.5718 15.604 29.5718H46.2353C47.2943 29.5718 48.152 30.4219 48.152 31.491C48.152 32.5601 47.303 33.4101 46.2353 33.4101Z" fill="#EB821D"/>
<path d="M67.0083 36.1658H69.0463C69.3362 36.1658 69.6085 36.27 69.8281 36.4612L79.0252 44.6037C79.7806 45.2728 80.9665 44.7427 80.9665 43.7434V37.3215C80.9665 36.6872 81.4848 36.1658 82.1348 36.1658H90.84C91.4813 36.1658 92.0083 35.6531 92.0083 35.01V12.5552C92.0083 6.11597 86.7378 0.902008 80.2286 0.902008H43.1766C42.5354 0.902008 42.0083 1.41471 42.0083 2.05777V10.2958H61.1492C64.3818 10.2958 66.9995 12.8854 66.9995 16.0833V36.1658H67.0083Z" fill="#EB821D"/>
</svg>
